<?xml version="1.0" encoding="UTF-8"?>
<svg xmlns="http://www.w3.org/2000/svg" viewBox="0 0 134.62 136.33">
  <rect width="134.62" height="136.33" fill="#231f20"/>
  <g id="Layer_1" data-name="Layer 1">
    <g>
      <path d="M99.11,79.5c11.85-1.44,10.99,18.61-1.24,14.78-8.08-2.53-6.17-13.88,1.24-14.78Z" fill="#a9d042"/>
      <path d="M33.52,79.5c8.29-1.15,14.02,9.27,3.71,14.57-10.61,5.46-14.58-13.07-3.71-14.57Z" fill="#a9d042"/>
      <path d="M32.74,41.72c10.48-2.02,12.97,14.05,1.94,15.1-8.48.81-11.34-13.29-1.94-15.1Z" fill="#a9d042"/>
      <path d="M98.3,41.7c8.5-1.89,13.34,9.56,5.55,14.05-9.85,5.68-16.33-11.66-5.55-14.05Z" fill="#a9d042"/>
      <path d="M65.92,22.4c10.02-1.64,12.35,14.3,2.04,15.29-9.44.91-11.35-13.77-2.04-15.29Z" fill="#a9d042"/>
      <path d="M65.93,98.8c10.03-1.45,11.86,12.45,3.49,14.35-10.96,2.49-13.06-12.97-3.49-14.35Z" fill="#a9d042"/>
      <path d="M50.41,110.45c7.29-.38,7.05,10.33.67,10.49-6.91.17-7.46-10.13-.67-10.49Z" fill="#a9d042"/>
      <path d="M83.59,110.45c6.75-.36,7.29,9.99.53,10.34-6.91.36-7.58-9.97-.53-10.34Z" fill="#a9d042"/>
      <path d="M16.53,72.55c8.78-1.81,8.43,12.45-.79,9.73-4.21-1.24-3.85-8.77.79-9.73Z" fill="#a9d042"/>
      <path d="M115.29,72.55c7.18-1.48,8.43,8.28,3.51,9.73-8.07,2.38-9.49-8.49-3.51-9.73Z" fill="#a9d042"/>
      <path d="M47.02,24.38c-4.64-4.4,2.4-12.86,7.53-7.15s-3.76,10.72-7.53,7.15Z" fill="#a9d042"/>
      <path d="M82.89,15.44c6.31-1.13,8.27,8.09,2.74,9.75-8.33,2.5-9.27-8.58-2.74-9.75Z" fill="#a9d042"/>
      <path d="M120.69,62.19c-4.06,4.3-11.79-1.09-8.34-6.42,4.2-6.46,12.9,1.59,8.34,6.42Z" fill="#a9d042"/>
      <path d="M13.85,62.19c-3.91-4.14,2.49-12.33,7.55-7.17,5.08,5.18-3.13,11.84-7.55,7.17Z" fill="#a9d042"/>
      <path d="M96.39,26.31c3.74-3.75,12.75,1.32,7.55,7.16-5.15,5.79-11.57-3.13-7.55-7.16Z" fill="#a9d042"/>
      <path d="M99.09,101.08c5.81-1.04,8.99,7.68,3.33,9.57-8.04,2.68-9.56-8.46-3.33-9.57Z" fill="#a9d042"/>
      <path d="M33.51,101.08c6.81-1.23,7.63,8.98,2.09,9.92-7.9,1.34-8.3-8.8-2.09-9.92Z" fill="#a9d042"/>
      <path d="M31.92,25.5c9.21-2.83,9.45,10.95,1.56,9.74-4.78-.73-5.9-8.41-1.56-9.74Z" fill="#a9d042"/>
      <path d="M82.08,35.52c5.75-1.77,8.62,5.54,3.91,7.77-6.61,3.13-8.77-6.27-3.91-7.77Z" fill="#a9d042"/>
      <path d="M48.9,35.52c7.68-2.39,8.44,9.81.8,8.2-4.25-.89-4.42-7.08-.8-8.2Z" fill="#a9d042"/>
      <path d="M82.08,92.62c7.74-2.39,8.12,9.57.81,8.22-4.48-.82-4.47-7.09-.81-8.22Z" fill="#a9d042"/>
      <path d="M48.91,92.58c5.05-1.39,9.06,5.36,3.89,7.82-6.35,3.02-8.9-6.44-3.89-7.82Z" fill="#a9d042"/>
      <path d="M37.38,71.46c-5.09,5.09-11.57-6.25-4.02-7.53,5.28-.9,6.52,5.03,4.02,7.53Z" fill="#fff"/>
      <path d="M97.16,71.46c-4.43-4.43,3.21-11.19,6.81-5.64,2.82,4.35-3.51,8.94-6.81,5.64Z" fill="#fff"/>
      <path d="M66.67,121.15c4.94-.76,6.7,6.84,1.32,7.61-5.53.8-6.55-6.81-1.32-7.61Z" fill="#a9d042"/>
      <path d="M21.25,42.21c-1.58,2.55-10.21.46-6.77-4.79s9.32.69,6.77,4.79Z" fill="#a9d042"/>
      <path d="M114.06,42.99c-2.73-1.7-.1-11.03,5.26-6.41,4.07,3.5-1.35,8.85-5.26,6.41Z" fill="#a9d042"/>
      <path d="M14.61,99.23c-4.68-5.37,8.25-10.7,6.75-1.77-.54,3.2-5.17,3.58-6.75,1.77Z" fill="#a9d042"/>
      <path d="M116.65,92.83c3.92.02,5.49,4.37,2.37,6.64-5.55,4.03-9.06-6.68-2.37-6.64Z" fill="#a9d042"/>
      <path d="M65.89,7.74c6.13-1.81,6.77,7.68.66,6.83-3.58-.5-3.75-5.92-.66-6.83Z" fill="#a9d042"/>
      <line x1="67.24" y1="30.01" x2="83.9" y2="39.59" fill="none" stroke="#a9d042" stroke-miterlimit="10" stroke-width="3"/>
      <line x1="34.37" y1="87.84" x2="50.74" y2="96.69" fill="none" stroke="#a9d042" stroke-miterlimit="10" stroke-width="3"/>
      <line x1="32.66" y1="30.37" x2="49.03" y2="39.23" fill="none" stroke="#a9d042" stroke-miterlimit="10" stroke-width="3"/>
      <line x1="16.8" y1="39.17" x2="33.16" y2="48.03" fill="none" stroke="#a9d042" stroke-miterlimit="10" stroke-width="3"/>
      <line x1="34.23" y1="106.05" x2="50.74" y2="115.69" fill="none" stroke="#a9d042" stroke-miterlimit="10" stroke-width="3"/>
      <line x1="67.28" y1="106.06" x2="83.77" y2="115.62" fill="none" stroke="#a9d042" stroke-miterlimit="10" stroke-width="3"/>
      <line x1="84.37" y1="20.23" x2="100.86" y2="29.8" fill="none" stroke="#a9d042" stroke-miterlimit="10" stroke-width="3"/>
      <path d="M67.4,90.16c-3.32,0-6.26-1.18-9.24-2.32-7.62-2.94-19.26-15.82-20.78-16.38v-4.73c1.74,1.27,20.16,13.7,22.61,14.51,2.45.81,4.92,1.22,7.41,1.22,1.9,0,3.43-.2,4.6-.59s2.03-.92,2.58-1.57.83-1.41.83-2.28c0-1.11-.44-1.99-1.3-2.64-.87-.65-2.03-1.19-3.47-1.6-1.44-.42-3.02-.81-4.71-1.19-1.7-.38-3.41-.83-5.13-1.36-1.72-.53-3.3-1.25-4.74-2.13-1.44-.89-2.59-2.05-3.44-3.5-.85-1.44-1.28-3.25-1.28-5.43,0-2.37.63-4.54,1.9-6.49,1.26-1.96,3.19-3.52,5.78-4.69,2.59-1.17,5.84-1.75,9.76-1.75,2.61,0,5.23.19,7.74.95,7.39,2.24,22.44,14.75,23.57,17.95l-3.26,2.03c-1.86-1.07-9.22-9.58-22.42-12.42-2-.43-3.88-.8-5.69-.8s-3.42.21-4.57.62c-1.15.42-1.99.98-2.52,1.69-.53.71-.8,1.5-.8,2.37,0,1.11.43,2,1.3,2.67.87.67,2.02,1.2,3.44,1.57,1.42.38,3,.75,4.74,1.13,1.74.38,3.46.84,5.16,1.39,1.7.55,3.26,1.26,4.69,2.1,1.42.85,2.58,2,3.47,3.44.89,1.44,1.33,3.23,1.33,5.37,0,2.33-.64,4.47-1.93,6.4-1.29,1.94-3.23,3.5-5.84,4.68-2.61,1.19-5.87,1.78-9.78,1.78Z" fill="#fff"/>
    </g>
  </g>
</svg>