<?xml version="1.0" encoding="UTF-8"?>
<svg xmlns="http://www.w3.org/2000/svg" viewBox="0 0 590.56 135.29">
  <rect width="590.56" height="135.29"/>
  <g id="Layer_1" data-name="Layer 1">
    <g>
      <path d="M147.23,89.67c-3.11,0-6.1-.42-8.96-1.25-2.87-.83-5.17-1.91-6.91-3.25l3.05-6.77c1.63,1.18,3.59,2.16,5.88,2.91,2.29.76,4.61,1.14,6.94,1.14,1.78,0,3.21-.19,4.3-.56,1.09-.37,1.9-.86,2.41-1.47.52-.61.78-1.32.78-2.14,0-1.04-.41-1.86-1.22-2.47-.81-.61-1.9-1.11-3.25-1.5s-2.82-.76-4.41-1.11c-1.59-.35-3.19-.78-4.8-1.28s-3.09-1.17-4.44-2-2.42-1.92-3.22-3.27c-.8-1.35-1.19-3.04-1.19-5.08,0-2.22.59-4.25,1.78-6.08,1.18-1.83,2.99-3.29,5.41-4.38,2.42-1.09,5.47-1.64,9.13-1.64,2.44,0,4.86.3,7.24.89,2.39.59,4.47,1.44,6.24,2.55l-2.83,6.77c-1.74-1-3.53-1.75-5.38-2.25-1.85-.5-3.63-.75-5.33-.75s-3.2.19-4.27.58c-1.07.39-1.86.92-2.36,1.58-.5.67-.75,1.41-.75,2.22,0,1.04.41,1.87,1.22,2.5.81.63,1.89,1.12,3.22,1.47,1.33.35,2.81.7,4.44,1.05,1.63.35,3.24.79,4.83,1.3,1.59.52,3.05,1.17,4.38,1.97,1.33.8,2.41,1.87,3.25,3.22.83,1.35,1.25,3.02,1.25,5.02,0,2.18-.6,4.18-1.8,5.99-1.2,1.81-3.02,3.27-5.47,4.38-2.44,1.11-5.49,1.67-9.16,1.67Z" fill="#fff"/>
      <path d="M178.75,81.79h21.14v7.21h-30.08v-38.85h29.36v7.21h-20.42v24.42ZM178.08,65.75h18.7v7.05h-18.7v-7.05Z" fill="#fff"/>
      <path d="M215.99,81.79h21.14v7.21h-30.08v-38.85h29.36v7.21h-20.42v24.42ZM215.32,65.75h18.7v7.05h-18.7v-7.05Z" fill="#fff"/>
      <path d="M263.05,89.67c-3.07,0-5.9-.49-8.49-1.47-2.59-.98-4.83-2.38-6.71-4.19-1.89-1.81-3.36-3.94-4.41-6.38-1.05-2.44-1.58-5.12-1.58-8.05s.53-5.6,1.58-8.05,2.54-4.57,4.47-6.38c1.92-1.81,4.18-3.21,6.77-4.19,2.59-.98,5.44-1.47,8.55-1.47,3.44,0,6.54.57,9.3,1.72,2.76,1.15,5.08,2.81,6.96,4.99l-5.72,5.33c-1.44-1.52-3-2.64-4.66-3.36-1.67-.72-3.5-1.08-5.49-1.08-1.85,0-3.55.31-5.11.92s-2.9,1.47-4.02,2.58c-1.13,1.11-2,2.42-2.61,3.94-.61,1.52-.92,3.2-.92,5.05s.31,3.43.92,4.97c.61,1.54,1.48,2.86,2.61,3.97,1.13,1.11,2.46,1.98,4,2.61,1.54.63,3.23.94,5.08.94s3.5-.3,5.19-.89c1.68-.59,3.32-1.57,4.91-2.94l5.11,6.49c-2.15,1.63-4.61,2.86-7.38,3.69-2.78.83-5.55,1.25-8.32,1.25ZM270.54,83.57v-14.6h8.21v15.76l-8.21-1.17Z" fill="#fff"/>
      <path d="M305.95,89.67c-3.07,0-5.9-.5-8.49-1.5-2.59-1-4.85-2.41-6.77-4.22-1.92-1.81-3.41-3.94-4.47-6.38s-1.58-5.11-1.58-7.99.53-5.6,1.58-8.02c1.05-2.42,2.54-4.54,4.47-6.35,1.92-1.81,4.17-3.22,6.74-4.22,2.57-1,5.39-1.5,8.46-1.5s5.89.49,8.46,1.47c2.57.98,4.82,2.38,6.74,4.19,1.92,1.81,3.41,3.94,4.47,6.38s1.58,5.12,1.58,8.05-.53,5.56-1.58,8.02c-1.05,2.46-2.54,4.6-4.47,6.41-1.92,1.81-4.17,3.21-6.74,4.19-2.57.98-5.38,1.47-8.41,1.47ZM305.89,82.07c1.74,0,3.34-.31,4.8-.92,1.46-.61,2.75-1.48,3.86-2.61,1.11-1.13,1.97-2.44,2.58-3.94.61-1.5.92-3.17.92-5.02s-.31-3.52-.92-5.02c-.61-1.5-1.47-2.81-2.58-3.94-1.11-1.13-2.4-2-3.86-2.61-1.46-.61-3.06-.92-4.8-.92s-3.35.31-4.83.92-2.77,1.48-3.86,2.61c-1.09,1.13-1.94,2.44-2.55,3.94-.61,1.5-.92,3.17-.92,5.02s.31,3.52.92,5.02c.61,1.5,1.46,2.81,2.55,3.94,1.09,1.13,2.38,2,3.86,2.61,1.48.61,3.09.92,4.83.92Z" fill="#fff"/>
      <path d="M349.62,89.01v-38.85h17.65c4.22,0,7.94.8,11.15,2.41,3.22,1.61,5.73,3.87,7.55,6.77,1.81,2.9,2.72,6.32,2.72,10.24s-.91,7.34-2.72,10.24c-1.81,2.9-4.33,5.16-7.55,6.77-3.22,1.61-6.94,2.41-11.15,2.41h-17.65ZM358.67,81.68h8.16c2.59,0,4.84-.49,6.74-1.47,1.91-.98,3.39-2.39,4.44-4.22,1.05-1.83,1.58-3.97,1.58-6.41s-.53-4.62-1.58-6.44c-1.05-1.81-2.53-3.21-4.44-4.19-1.91-.98-4.15-1.47-6.74-1.47h-8.16v24.2Z" fill="#a9d042"/>
      <path d="M404.39,81.79h21.14v7.21h-30.08v-38.85h29.36v7.21h-20.42v24.42ZM403.73,65.75h18.7v7.05h-18.7v-7.05Z" fill="#a9d042"/>
      <path d="M445.52,89.67c-3.11,0-6.1-.42-8.96-1.25-2.87-.83-5.17-1.91-6.91-3.25l3.05-6.77c1.63,1.18,3.59,2.16,5.88,2.91,2.29.76,4.61,1.14,6.94,1.14,1.78,0,3.21-.19,4.3-.56,1.09-.37,1.9-.86,2.41-1.47.52-.61.78-1.32.78-2.14,0-1.04-.41-1.86-1.22-2.47-.81-.61-1.9-1.11-3.25-1.5s-2.82-.76-4.41-1.11c-1.59-.35-3.19-.78-4.8-1.28s-3.09-1.17-4.44-2-2.42-1.92-3.22-3.27c-.8-1.35-1.19-3.04-1.19-5.08,0-2.22.59-4.25,1.78-6.08,1.18-1.83,2.99-3.29,5.41-4.38,2.42-1.09,5.47-1.64,9.13-1.64,2.44,0,4.86.3,7.24.89,2.39.59,4.47,1.44,6.24,2.55l-2.83,6.77c-1.74-1-3.53-1.75-5.38-2.25-1.85-.5-3.63-.75-5.33-.75s-3.2.19-4.27.58c-1.07.39-1.86.92-2.36,1.58-.5.67-.75,1.41-.75,2.22,0,1.04.41,1.87,1.22,2.5.81.63,1.89,1.12,3.22,1.47,1.33.35,2.81.7,4.44,1.05,1.63.35,3.24.79,4.83,1.3,1.59.52,3.05,1.17,4.38,1.97,1.33.8,2.41,1.87,3.25,3.22.83,1.35,1.25,3.02,1.25,5.02,0,2.18-.6,4.18-1.8,5.99-1.2,1.81-3.02,3.27-5.47,4.38-2.44,1.11-5.49,1.67-9.16,1.67Z" fill="#a9d042"/>
      <path d="M468.1,89.01v-38.85h9.05v38.85h-9.05Z" fill="#a9d042"/>
      <path d="M505.06,89.67c-3.07,0-5.9-.49-8.49-1.47-2.59-.98-4.83-2.38-6.71-4.19-1.89-1.81-3.36-3.94-4.41-6.38-1.05-2.44-1.58-5.12-1.58-8.05s.53-5.6,1.58-8.05,2.54-4.57,4.47-6.38c1.92-1.81,4.18-3.21,6.77-4.19,2.59-.98,5.44-1.47,8.55-1.47,3.44,0,6.54.57,9.3,1.72,2.76,1.15,5.08,2.81,6.96,4.99l-5.72,5.33c-1.44-1.52-3-2.64-4.66-3.36-1.67-.72-3.5-1.08-5.49-1.08-1.85,0-3.55.31-5.11.92s-2.9,1.47-4.02,2.58c-1.13,1.11-2,2.42-2.61,3.94-.61,1.52-.92,3.2-.92,5.05s.31,3.43.92,4.97c.61,1.54,1.48,2.86,2.61,3.97,1.13,1.11,2.46,1.98,4,2.61,1.54.63,3.23.94,5.08.94s3.5-.3,5.19-.89c1.68-.59,3.32-1.57,4.91-2.94l5.11,6.49c-2.15,1.63-4.61,2.86-7.38,3.69-2.78.83-5.55,1.25-8.32,1.25ZM512.55,83.57v-14.6h8.21v15.76l-8.21-1.17Z" fill="#a9d042"/>
      <path d="M529.09,89.01v-38.85h7.44l22.92,27.97h-3.61v-27.97h8.88v38.85h-7.44l-22.92-27.97h3.61v27.97h-8.88Z" fill="#a9d042"/>
    </g>
    <g>
      <path d="M91.08,79.73c9.99-1.21,9.26,15.69-1.04,12.46-6.81-2.13-5.21-11.7,1.04-12.46Z" fill="#a9d042"/>
      <path d="M35.79,79.73c6.99-.97,11.82,7.81,3.13,12.28-8.95,4.6-12.29-11.02-3.13-12.28Z" fill="#a9d042"/>
      <path d="M35.12,47.88c8.83-1.7,10.94,11.84,1.64,12.73-7.15.68-9.56-11.21-1.64-12.73Z" fill="#a9d042"/>
      <path d="M90.4,47.87c7.17-1.59,11.25,8.06,4.68,11.85-8.3,4.79-13.76-9.83-4.68-11.85Z" fill="#a9d042"/>
      <path d="M63.1,31.59c8.45-1.39,10.41,12.05,1.72,12.89-7.96.77-9.57-11.6-1.72-12.89Z" fill="#a9d042"/>
      <path d="M63.11,96c8.46-1.22,10,10.49,2.94,12.1-9.24,2.1-11.01-10.93-2.94-12.1Z" fill="#a9d042"/>
      <path d="M50.03,105.83c6.15-.32,5.94,8.71.57,8.84-5.82.14-6.29-8.54-.57-8.84Z" fill="#a9d042"/>
      <path d="M77.99,105.83c5.69-.3,6.14,8.42.45,8.72s-6.39-8.41-.45-8.72Z" fill="#a9d042"/>
      <path d="M21.46,73.88c7.4-1.53,7.11,10.5-.67,8.2-3.55-1.05-3.25-7.39.67-8.2Z" fill="#a9d042"/>
      <path d="M104.72,73.88c6.05-1.25,7.1,6.98,2.96,8.2-6.8,2.01-8-7.16-2.96-8.2Z" fill="#a9d042"/>
      <path d="M47.16,33.26c-3.91-3.71,2.02-10.85,6.35-6.02s-3.17,9.03-6.35,6.02Z" fill="#a9d042"/>
      <path d="M77.4,25.73c5.32-.95,6.97,6.82,2.31,8.22-7.03,2.11-7.81-7.23-2.31-8.22Z" fill="#a9d042"/>
      <path d="M109.27,65.14c-3.43,3.63-9.94-.92-7.03-5.41,3.54-5.45,10.88,1.34,7.03,5.41Z" fill="#a9d042"/>
      <path d="M19.2,65.14c-3.29-3.49,2.1-10.39,6.36-6.04s-2.64,9.98-6.36,6.04Z" fill="#a9d042"/>
      <path d="M88.78,34.89c3.16-3.16,10.74,1.12,6.36,6.04-4.34,4.88-9.75-2.64-6.36-6.04Z" fill="#a9d042"/>
      <path d="M91.06,97.93c4.9-.87,7.58,6.48,2.81,8.07-6.78,2.26-8.06-7.13-2.81-8.07Z" fill="#a9d042"/>
      <path d="M35.77,97.93c5.74-1.03,6.43,7.57,1.76,8.36-6.66,1.13-7-7.42-1.76-8.36Z" fill="#a9d042"/>
      <path d="M34.44,34.21c7.77-2.39,7.96,9.23,1.31,8.21-4.03-.62-4.97-7.09-1.31-8.21Z" fill="#a9d042"/>
      <path d="M76.72,42.66c4.85-1.5,7.27,4.67,3.3,6.55-5.58,2.64-7.39-5.29-3.3-6.55Z" fill="#a9d042"/>
      <path d="M48.75,42.66c6.47-2.01,7.11,8.27.68,6.91-3.58-.75-3.73-5.97-.68-6.91Z" fill="#a9d042"/>
      <path d="M76.72,90.79c6.53-2.01,6.85,8.07.68,6.93-3.77-.7-3.77-5.98-.68-6.93Z" fill="#a9d042"/>
      <path d="M48.76,90.76c4.26-1.17,7.63,4.52,3.28,6.59-5.35,2.55-7.5-5.43-3.28-6.59Z" fill="#a9d042"/>
      <path d="M39.04,72.95c-4.29,4.29-9.75-5.27-3.39-6.35,4.45-.75,5.5,4.24,3.39,6.35Z" fill="#fff"/>
      <path d="M89.43,72.95c-3.73-3.74,2.71-9.43,5.74-4.76,2.38,3.66-2.96,7.54-5.74,4.76Z" fill="#fff"/>
      <path d="M63.73,114.85c4.16-.64,5.65,5.76,1.11,6.42s-5.52-5.74-1.11-6.42Z" fill="#a9d042"/>
      <path d="M25.44,48.3c-1.34,2.15-8.61.39-5.7-4.04s7.85.59,5.7,4.04Z" fill="#a9d042"/>
      <path d="M103.68,48.95c-2.3-1.43-.09-9.3,4.43-5.41,3.43,2.95-1.14,7.46-4.43,5.41Z" fill="#a9d042"/>
      <path d="M19.84,96.36c-3.95-4.53,6.95-9.02,5.69-1.49-.45,2.7-4.36,3.02-5.69,1.49Z" fill="#a9d042"/>
      <path d="M105.87,90.97c3.3.02,4.63,3.69,2,5.6-4.68,3.4-7.64-5.63-2-5.6Z" fill="#a9d042"/>
      <path d="M63.07,19.23c5.17-1.53,5.7,6.48.55,5.76-3.02-.42-3.16-4.99-.55-5.76Z" fill="#a9d042"/>
      <line x1="64.21" y1="38.01" x2="78.25" y2="46.09" fill="none" stroke="#a9d042" stroke-miterlimit="10" stroke-width="3"/>
      <line x1="36.5" y1="86.76" x2="50.3" y2="94.23" fill="none" stroke="#a9d042" stroke-miterlimit="10" stroke-width="3"/>
      <line x1="35.06" y1="38.31" x2="48.86" y2="45.78" fill="none" stroke="#a9d042" stroke-miterlimit="10" stroke-width="3"/>
      <line x1="21.69" y1="45.73" x2="35.48" y2="53.2" fill="none" stroke="#a9d042" stroke-miterlimit="10" stroke-width="3"/>
      <line x1="36.38" y1="102.12" x2="50.3" y2="110.24" fill="none" stroke="#a9d042" stroke-miterlimit="10" stroke-width="3"/>
      <line x1="64.24" y1="102.12" x2="78.15" y2="110.19" fill="none" stroke="#a9d042" stroke-miterlimit="10" stroke-width="3"/>
      <line x1="78.65" y1="29.77" x2="92.56" y2="37.84" fill="none" stroke="#a9d042" stroke-miterlimit="10" stroke-width="3"/>
      <path d="M64.35,88.72c-2.8,0-5.28-.99-7.79-1.96-6.42-2.48-16.24-13.34-17.52-13.81v-3.99c1.47,1.07,16.99,11.55,19.06,12.23,2.07.68,4.15,1.03,6.25,1.03,1.6,0,2.89-.17,3.87-.5s1.71-.78,2.17-1.33.7-1.19.7-1.92c0-.93-.37-1.67-1.1-2.22-.73-.55-1.71-1-2.92-1.35-1.22-.35-2.54-.68-3.97-1-1.43-.32-2.88-.7-4.33-1.15-1.45-.45-2.78-1.05-4-1.8-1.22-.75-2.18-1.73-2.9-2.95-.72-1.22-1.08-2.74-1.08-4.57,0-2,.53-3.83,1.6-5.47,1.07-1.65,2.69-2.97,4.87-3.95,2.18-.98,4.92-1.47,8.22-1.47,2.2,0,4.41.16,6.52.8,6.23,1.89,18.92,12.44,19.87,15.13l-2.75,1.71c-1.57-.9-7.77-8.08-18.9-10.47-1.69-.36-3.27-.67-4.8-.67s-2.88.17-3.85.52c-.97.35-1.67.83-2.12,1.42-.45.6-.67,1.27-.67,2,0,.93.37,1.68,1.1,2.25.73.57,1.7,1.01,2.9,1.33,1.2.32,2.53.63,4,.95,1.47.32,2.92.71,4.35,1.18,1.43.47,2.75,1.06,3.95,1.77,1.2.72,2.17,1.68,2.92,2.9.75,1.22,1.12,2.73,1.12,4.53,0,1.97-.54,3.77-1.62,5.4-1.08,1.63-2.72,2.95-4.92,3.95-2.2,1-4.95,1.5-8.25,1.5Z" fill="#fff"/>
    </g>
  </g>
</svg>